<?xml version="1.0" standalone="no"?>
<!DOCTYPE svg PUBLIC "-//W3C//DTD SVG 20010904//EN"
 "http://www.w3.org/TR/2001/REC-SVG-20010904/DTD/svg10.dtd">
<svg version="1.0" xmlns="http://www.w3.org/2000/svg"
 width="512.000000pt" height="512.000000pt" viewBox="0 0 512.000000 512.000000"
 preserveAspectRatio="xMidYMid meet">
<metadata>
Created by potrace 1.11, written by Peter Selinger 2001-2013
</metadata>
<g transform="translate(0.000000,512.000000) scale(0.100000,-0.100000)"
fill="#000000" stroke="none">
<path d="M890 4105 l0 -175 205 0 205 0 0 -1345 0 -1345 -205 0 -205 0 0 -170
0 -170 650 0 650 0 0 170 0 170 -210 0 -210 0 0 615 0 615 805 0 805 0 0 -615
0 -615 -205 0 -205 0 0 -170 0 -170 645 0 645 0 0 170 0 170 -205 0 -205 0 0
1345 0 1345 205 0 205 0 0 175 0 175 -645 0 -645 0 0 -175 0 -175 205 0 205 0
0 -540 0 -540 -805 0 -805 0 0 540 0 540 210 0 210 0 0 175 0 175 -650 0 -650
0 0 -175z"/>
</g>
</svg>
