<?xml version="1.0" standalone="no"?>
<!DOCTYPE svg PUBLIC "-//W3C//DTD SVG 20010904//EN"
 "http://www.w3.org/TR/2001/REC-SVG-20010904/DTD/svg10.dtd">
<svg version="1.0" xmlns="http://www.w3.org/2000/svg"
 width="512.000000pt" height="512.000000pt" viewBox="0 0 512.000000 512.000000"
 preserveAspectRatio="xMidYMid meet">
<metadata>
Created by potrace 1.11, written by Peter Selinger 2001-2013
</metadata>
<g transform="translate(0.000000,512.000000) scale(0.100000,-0.100000)"
fill="#000000" stroke="none">
<path d="M805 5108 c-357 -66 -638 -307 -757 -648 -49 -144 -48 -101 -45
-1935 1 -940 5 -1719 9 -1730 3 -11 13 -48 22 -83 80 -305 321 -561 621 -660
147 -49 62 -47 1895 -47 949 0 1741 3 1760 6 314 57 572 248 710 527 42 86 77
194 88 277 4 28 7 824 7 1770 l0 1720 -23 85 c-70 261 -244 487 -472 612 -69
38 -207 87 -290 103 -64 12 -336 14 -1775 13 -1000 0 -1721 -4 -1750 -10z
m1297 -1187 c16 -8 38 -35 50 -60 23 -46 23 -49 23 -478 l-1 -433 388 0 388 0
0 435 c0 480 0 482 61 526 l34 24 302 0 c291 0 303 -1 330 -21 15 -12 36 -35
46 -52 17 -29 18 -95 18 -1302 0 -1206 -1 -1273 -18 -1302 -10 -17 -31 -40
-46 -52 -27 -20 -41 -21 -322 -23 -326 -2 -337 0 -382 67 l-23 33 0 461 0 462
-387 -1 -388 0 -1 -445 c0 -245 -4 -459 -8 -477 -9 -38 -63 -89 -103 -97 -15
-3 -154 -5 -308 -3 -275 2 -281 2 -313 25 -68 49 -63 -49 -63 1343 0 876 3
1270 11 1293 11 35 47 71 83 86 12 5 153 8 312 7 225 -2 296 -5 317 -16z"/>
</g>
</svg>
