<?xml version="1.0" standalone="no"?>
<!DOCTYPE svg PUBLIC "-//W3C//DTD SVG 20010904//EN"
 "http://www.w3.org/TR/2001/REC-SVG-20010904/DTD/svg10.dtd">
<svg version="1.0" xmlns="http://www.w3.org/2000/svg"
 width="512.000000pt" height="512.000000pt" viewBox="0 0 512.000000 512.000000"
 preserveAspectRatio="xMidYMid meet">
<metadata>
Created by potrace 1.11, written by Peter Selinger 2001-2013
</metadata>
<g transform="translate(0.000000,512.000000) scale(0.100000,-0.100000)"
fill="#000000" stroke="none">
<path d="M910 3925 l0 -135 165 0 165 0 0 -1015 0 -1015 -165 0 -165 0 0 -115
0 -115 490 0 490 0 0 115 0 115 -160 0 -160 0 0 550 0 550 38 24 c224 141 562
206 707 136 55 -27 108 -87 132 -149 16 -42 18 -97 21 -578 l3 -533 -111 0
-110 0 0 -115 0 -115 430 0 430 0 0 115 0 115 -154 0 -155 0 -3 563 c-4 544
-5 565 -26 642 -52 186 -168 296 -359 341 -94 22 -346 14 -453 -14 -109 -29
-224 -75 -312 -126 l-78 -44 0 469 0 469 -330 0 -330 0 0 -135z"/>
<path d="M3623 3901 l-163 -35 0 -283 0 -283 -135 0 -135 0 0 -120 0 -120 135
0 135 0 0 -517 c0 -285 5 -558 10 -606 17 -167 68 -270 164 -334 85 -58 127
-65 379 -71 l227 -4 0 115 0 116 -169 3 c-187 3 -205 9 -243 75 -32 54 -38
160 -38 696 l0 527 190 0 190 0 0 120 0 120 -190 0 -190 0 -2 318 -3 317 -162
-34z"/>
</g>
</svg>
